# xmcd
#
# Track frame offsets:
#	150
#	11380
#	31455
#	54398
#	72890
#	97993
#	120318
#	143913
#	167725
#	199360
#	223200
#	243133
#	265005
#
# Disc length: 3903 seconds
#
# Revision: 1
# Processed by: cddbd v1.4PL0 Copyright (c) Steve Scherf et al.
# Submitted via: EasyCDDAExtractor 5.0.7
#
DISCID=b00f3d0d
DTITLE=Tuan Anh - Kiep Dam Me
DYEAR=1900
DGENRE=
TTITLE0=Nguoi dep yeu dau
TTITLE1=Nguoi yeu neu ra di
TTITLE2=Xi nguoi tinh toi
TTITLE3=Got hong thoi het phieu du
TTITLE4=Tan on em
TTITLE5=Kiep dam me
TTITLE6=Giong doi
TTITLE7=Bai khong ten so 8
TTITLE8=Con nho hay khong
TTITLE9=Giang tien
TTITLE10=Hat cho thanh pho cu
TTITLE11=Gian thien ly da xa
TTITLE12=no name
EXTD=
EXTT0=
EXTT1=
EXTT2=
EXTT3=
EXTT4=
EXTT5=
EXTT6=
EXTT7=
EXTT8=
EXTT9=
EXTT10=
EXTT11=
EXTT12=
PLAYORDER=
